PathFileType	4	(X/Y/Z)	/Users/niels/Desktop/University/Third Semester/Perception and Action/Exam/Gymnastics Motion Tracking/Code for Gym Tracking/Analyzed Data/Webcam_Backflip/id1_3_trajectory_Sports2D/id1_3_trajectory_Sports2D_px_person00.trc
DataRate	CameraRate	NumFrames	NumMarkers	Units	OrigDataRate	OrigDataStartFrame	OrigNumFrames
29.87551867219917	29.87551867219917	7	22	m	29.87551867219917	150	241
Frame#	Time	Hip			RHip			RKnee			RAnkle			RBigToe			RSmallToe			RHeel			LHip			LKnee			LAnkle			LBigToe			LSmallToe			LHeel			Neck			Head			Nose			RShoulder			RElbow			RWrist			LShoulder			LElbow			LWrist		
		X1	Y1	Z1	X2	Y2	Z2	X3	Y3	Z3	X4	Y4	Z4	X5	Y5	Z5	X6	Y6	Z6	X7	Y7	Z7	X8	Y8	Z8	X9	Y9	Z9	X10	Y10	Z10	X11	Y11	Z11	X12	Y12	Z12	X13	Y13	Z13	X14	Y14	Z14	X15	Y15	Z15	X16	Y16	Z16	X17	Y17	Z17	X18	Y18	Z18	X19	Y19	Z19	X20	Y20	Z20	X21	Y21	Z21	X22	Y22	Z22
150	5.020833333333333	0.8658089296236942	-0.5883083757257663	0.0	0.8658251920755253	-0.5862940751598219	0.0	0.883011428175887	-0.6934887618048562	0.0	0.8875348107658648	-0.8102415091877787	0.0	0.935923866961978	-0.819906076287199	0.0	0.9267204230761831	-0.8250214061210577	0.0	0.8805781436699077	-0.8264838611574572	0.0	0.8653646802746389	-0.5873945139151968	0.0	0.8593885500589256	-0.6941910620977474	0.0	0.8395766133522734	-0.8061479261437099	0.0	0.8814645156106529	-0.816866020828209	0.0	0.8784940606432106	-0.8161036233897131	0.0	0.8315779694072079	-0.8214706994804776	0.0	0.8838606982079279	-0.43232999409553635	0.0	0.9157652712672685	-0.36971979250182985	0.0	0.9240724725927947	-0.4121857647219469	0.0	0.8590262404802838	-0.44918690111424664	0.0	0.8284540383154415	-0.5175966090266324	0.0	0.8524005016103243	-0.5837113977055138	0.0	0.8843716865831986	-0.45351605004022494	0.0	0.8639698483039137	-0.5210454911394499	0.0	0.877712996277759	-0.5830414570675935	0.0
151	5.054305555555556	0.866982384872527	-0.5860506080762012	0.0	0.8666053116100827	-0.5842926499954624	0.0	0.883294925230855	-0.6915220322022272	0.0	0.8874369336909989	-0.8082446125603687	0.0	0.9358759415372354	-0.8183553560535196	0.0	0.9266253415182215	-0.823262026277108	0.0	0.8805160973897075	-0.8245301899884225	0.0	0.8670524339525221	-0.5854245171520284	0.0	0.8600409228343232	-0.6923687056128096	0.0	0.8397294240455099	-0.8039968954187793	0.0	0.8814249969175716	-0.8149001182387875	0.0	0.8786257329353826	-0.81398960452206	0.0	0.8317214167680016	-0.8193661444713315	0.0	0.8845266118376908	-0.430117354726953	0.0	0.915919099377132	-0.36717835202567584	0.0	0.9232838460770427	-0.4099725021393464	0.0	0.8593031726061028	-0.44717567891449417	0.0	0.8285158908394599	-0.5154251343606243	0.0	0.851578371814335	-0.5821601578718852	0.0	0.8856019655114794	-0.4516341467318088	0.0	0.8657975886169182	-0.5192520160125611	0.0	0.8788816041232355	-0.5819618000737558	0.0
152	5.087777777777778	0.8681849293565791	-0.5846110488711153	0.0	0.867588939947705	-0.5831456513485912	0.0	0.883628768362171	-0.6902367643138696	0.0	0.8874886131552814	-0.8069402357243859	0.0	0.9358150420636397	-0.8175003453312183	0.0	0.9265898972524444	-0.8222642146972959	0.0	0.8805182704111919	-0.8232278717635692	0.0	0.8688499666573171	-0.5843724215924084	0.0	0.8606761977127171	-0.691122729961042	0.0	0.8398536136830428	-0.8024796486920632	0.0	0.8813269279700117	-0.8136583563456603	0.0	0.8786826777727842	-0.812551291547483	0.0	0.8319116066275146	-0.8179219928086784	0.0	0.8852237792043778	-0.4284752708429875	0.0	0.9159202241783087	-0.3652213704103693	0.0	0.922211230883922	-0.40811766415557	0.0	0.8595176774242402	-0.44583085407679357	0.0	0.8286608288251076	-0.5138773489805325	0.0	0.8510009900951996	-0.5812000088469118	0.0	0.8869390151403788	-0.45052598831397794	0.0	0.8680705156688551	-0.5184244943287908	0.0	0.8806277938655027	-0.5817881080745754	0.0
153	5.12125	0.8694440388903146	-0.5840901924778026	0.0	0.8687903337291624	-0.582872722743896	0.0	0.8839950917247367	-0.6897778443516216	0.0	0.8877211104186299	-0.8064445522899094	0.0	0.9357763266707092	-0.8174673566851698	0.0	0.9266695632780159	-0.8221529108660275	0.0	0.8806190088672828	-0.8227035888831687	0.0	0.8708553480390361	-0.5842876066703232	0.0	0.861345661187064	-0.6905860735620115	0.0	0.8399549660460802	-0.8016888099669499	0.0	0.8812098634851717	-0.8132373476787567	0.0	0.8787217359289687	-0.8119070622967908	0.0	0.832115728232653	-0.8172676692757246	0.0	0.8859939611949005	-0.4275472692575134	0.0	0.9158002924294967	-0.36400092898133474	0.0	0.921000998263622	-0.40670817571165596	0.0	0.8596479063943971	-0.44529589571992273	0.0	0.8289398284051259	-0.5131291063543876	0.0	0.8507513595353727	-0.5809337344375751	0.0	0.8883971397879384	-0.45032796494233296	0.0	0.8708469534772052	-0.5187251319879277	0.0	0.8831614561913556	-0.5825599715071808	0.0
154	5.154722222222222	0.8708202937606587	-0.5844295905920207	0.0	0.870167432841752	-0.5833397691418224	0.0	0.8843657581328862	-0.6901977181454764	0.0	0.8880925760636321	-0.8067937110315809	0.0	0.9358027334036871	-0.8182937794474238	0.0	0.9268978937114823	-0.8229425133704529	0.0	0.8807797530807502	-0.8230190033992538	0.0	0.8731722090481171	-0.5850471966036473	0.0	0.8620815821609219	-0.6908336190969888	0.0	0.8400657639637924	-0.8016194737471332	0.0	0.8811013145321227	-0.8136267650447193	0.0	0.878816091630282	-0.8120598920409005	0.0	0.8322954323567014	-0.8174360611917332	0.0	0.8868544481173164	-0.427389589749073	0.0	0.9155781418238609	-0.3635565908248848	0.0	0.9197988445929758	-0.4058285371934781	0.0	0.8596876659183075	-0.4456357578263928	0.0	0.8293941366759795	-0.5132933012738454	0.0	0.8508734773130073	-0.5814246590246549	0.0	0.8900076409676405	-0.4510469830182679	0.0	0.8741870066141235	-0.520195375129079	0.0	0.886656099404312	-0.5842034285636188	0.0
155	5.188194444444444	0.8723694756092386	-0.5854538814410433	0.0	0.8716415961236398	-0.5843534138195766	0.0	0.8846957480439651	-0.6914422056170627	0.0	0.888495270580609	-0.807946310591668	0.0	0.9359144066114304	-0.8199188983972646	0.0	0.9272440231956125	-0.8245459599413947	0.0	0.8809155725991425	-0.8241715350426927	0.0	0.8758013867720191	-0.5864299246747589	0.0	0.8628973462461536	-0.6918413305946113	0.0	0.8402308491996135	-0.8021991688663717	0.0	0.8810116972092514	-0.8147321718463998	0.0	0.8789914017127813	-0.8129448056343457	0.0	0.8324285668466591	-0.8183484632866636	0.0	0.887794467169004	-0.42798084248320106	0.0	0.9152355240638951	-0.363819573200604	0.0	0.9187288737625116	-0.40552634755580264	0.0	0.8596795199819803	-0.44681129590793967	0.0	0.8300294845926479	-0.5143985805084937	0.0	0.851373638108192	-0.5826940595181518	0.0	0.8918097238921899	-0.4525732589690419	0.0	0.8780793254814689	-0.5226873496870228	0.0	0.8911121672657477	-0.5864867375366523	0.0
156	5.221666666666667	0.874125540568955	-0.5869725692517304	0.0	0.8731565731328699	-0.5857800607987155	0.0	0.8849560534801767	-0.693369354046569	0.0	0.8888084103482986	-0.8097731602928002	0.0	0.9360894469896884	-0.8221866220677133	0.0	0.9276102180827434	-0.8267882912013221	0.0	0.8809670885583291	-0.8260548108584682	0.0	0.8785931466189293	-0.588238517197032	0.0	0.8638057507319725	-0.693468547221213	0.0	0.8404688688638614	-0.8033001965380261	0.0	0.8809421437071292	-0.8164040783160271	0.0	0.8791826217854393	-0.8144446050152496	0.0	0.8325254444614506	-0.81983123370264	0.0	0.8887842349940619	-0.42922683339452944	0.0	0.9147493256456991	-0.36465784713175703	0.0	0.9178422884685937	-0.40579996700218723	0.0	0.8596840633525483	-0.44867047848804154	0.0	0.8308190873108328	-0.516370055324612	0.0	0.8522137113891228	-0.5847128412729568	0.0	0.8938275881532758	-0.45470357191997685	0.0	0.8823824286186539	-0.5258524818777595	0.0	0.8963144704941682	-0.5890650635742157	0.0
